<svg width="100" height="100" viewBox="0 0 100 100" fill="none" xmlns="http://www.w3.org/2000/svg">
<g clip-path="url(#clip0_1208_4)">
<path d="M4.63336 58.9065C4.58707 58.343 4.54605 57.7794 4.51031 57.2104C4.48824 56.8598 4.75465 56.5577 5.10523 56.5356C5.45875 56.5194 5.75816 56.7802 5.78004 57.1305C5.81539 57.6917 5.85582 58.2471 5.90133 58.8034C5.92984 59.1536 5.6693 59.4604 5.3189 59.4891C4.95465 59.5149 4.66109 59.2466 4.63336 58.9065ZM6.31265 69.3843C5.7068 66.8499 5.31988 64.6907 4.98766 62.1643C4.94176 61.8159 5.18687 61.4964 5.53531 61.4507C5.88414 61.4065 6.20348 61.6503 6.24898 61.9983C6.6023 64.6809 6.99879 66.7848 7.54996 69.088C7.6318 69.4296 7.42105 69.7731 7.07926 69.8548C6.73922 69.9366 6.39449 69.7272 6.31265 69.3843ZM88.2814 81.886C86.2906 84.4153 84.0121 86.7563 81.5088 88.844C81.2388 89.0692 81.2027 89.4702 81.4277 89.7401C81.6505 90.0075 82.0507 90.0479 82.3238 89.8212C84.8951 87.6768 87.2357 85.272 89.2812 82.6727C89.4984 82.3968 89.4507 81.997 89.175 81.7794C88.8982 81.5624 88.4992 81.6098 88.2814 81.886ZM78.8644 90.8952C78.4216 91.2186 77.9544 91.5452 77.4351 91.8929C77.1433 92.0887 77.0654 92.4837 77.2611 92.7755C77.4578 93.0688 77.8531 93.1442 78.1437 92.9499C78.6769 92.5923 79.1586 92.2561 79.6148 91.9223C79.8986 91.7149 79.9607 91.3169 79.7529 91.0333C79.5459 90.7491 79.1463 90.6876 78.8644 90.8952ZM59.6877 15.9432C62.2773 14.0874 64.9912 12.2968 67.7535 10.6216C68.0537 10.4393 68.1496 10.0481 67.9671 9.74773C67.7853 9.44715 67.3937 9.35183 67.0935 9.53386C64.3041 11.2261 61.5628 13.0345 58.9462 14.9093C58.6609 15.1139 58.5955 15.5114 58.8002 15.7968C59.0037 16.0819 59.4021 16.1479 59.6877 15.9432ZM70.6615 8.8989C71.1714 8.60574 71.6818 8.31277 72.1976 8.02976C72.5058 7.86082 72.6181 7.4741 72.4492 7.16609C72.2802 6.85847 71.8941 6.74519 71.5855 6.91472C71.0781 7.19304 70.5761 7.48074 70.0742 7.76922C69.856 7.8698 69.7054 8.0907 69.7054 8.34734C69.7054 8.83601 70.2396 9.14148 70.6615 8.8989Z" fill="#32A94E"/>
<path d="M97.1733 0.526856C97.1043 0.13584 96.6969 -0.0969721 96.3245 0.0418951C74.4932 8.18975 57.1358 19.2228 44.7342 32.8341C40.7545 37.2021 37.5653 42.3403 35.2957 47.9231C27.0569 39.9239 16.5051 33.2173 3.77309 27.9388C3.40629 27.7868 2.99086 28.0048 2.90766 28.3933C-0.508162 44.3444 -0.613045 58.7849 2.59574 71.3142C6.7975 87.7192 21.6313 100.585 42.0573 99.9784C42.0582 99.9784 42.059 99.9778 42.0598 99.9778C63.7145 99.238 85.3729 89.0526 93.4096 66.7681C100.303 47.653 101.569 25.3663 97.1733 0.526856ZM3.82836 70.9985C0.718596 58.8571 0.774455 44.8692 3.9934 29.4097C16.4577 34.6626 26.7696 41.306 34.7955 49.2093C33.2096 53.4208 32.135 57.8632 31.6489 62.4124C30.5602 72.6001 32.4727 82.7843 37.1803 92.2833C29.1096 81.5698 23.7127 70.7319 20.7924 59.3478C20.7049 59.0073 20.3582 58.8036 20.0182 58.8896C19.6778 58.9771 19.4727 59.3237 19.56 59.6638C23.0401 73.2288 29.9614 86.0153 40.6801 98.7155C20.1608 98.7167 7.40004 84.9442 3.82836 70.9985ZM92.2129 66.3364C85.3711 85.3077 68.9772 96.1429 43.4887 98.569C59.8485 78.4304 70.7444 57.8077 76.7717 35.5688C76.8637 35.2296 76.6633 34.8804 76.3245 34.7884C75.9866 34.6968 75.6356 34.8968 75.5442 35.2358C69.5133 57.4856 58.5647 78.1132 42.0899 98.2716C26.1284 74.1376 32.6897 47.9427 45.6743 33.6907C57.803 20.379 74.7485 9.55205 96.0524 1.50283C100.251 25.8163 98.9598 47.6272 92.2129 66.3364Z" fill="#32A94E"/>
</g>
<defs>
<clipPath id="clip0_1208_4">
<rect width="100" height="100" fill="white"/>
</clipPath>
</defs>
</svg>
