<svg width="15" height="15" viewBox="0 0 15 15" fill="none" xmlns="http://www.w3.org/2000/svg">
<path d="M11.6938 5.13116C11.6357 5.07258 11.5665 5.02609 11.4904 4.99436C11.4142 4.96263 11.3325 4.94629 11.25 4.94629C11.1675 4.94629 11.0858 4.96263 11.0096 4.99436C10.9335 5.02609 10.8644 5.07258 10.8063 5.13116L7.94376 7.99366C7.88566 8.05224 7.81653 8.09874 7.74037 8.13047C7.66421 8.1622 7.58251 8.17854 7.50001 8.17854C7.4175 8.17854 7.33581 8.1622 7.25965 8.13047C7.18348 8.09874 7.11436 8.05224 7.05626 7.99366L4.19376 5.13116C4.13566 5.07258 4.06653 5.02609 3.99037 4.99436C3.91421 4.96263 3.83251 4.94629 3.75001 4.94629C3.6675 4.94629 3.58581 4.96263 3.50965 4.99436C3.43348 5.02609 3.36436 5.07258 3.30626 5.13116C3.18985 5.24826 3.12451 5.40667 3.12451 5.57179C3.12451 5.7369 3.18985 5.89531 3.30626 6.01241L6.17501 8.88116C6.52657 9.23229 7.00313 9.42951 7.50001 9.42951C7.99688 9.42951 8.47344 9.23229 8.82501 8.88116L11.6938 6.01241C11.8102 5.89531 11.8755 5.7369 11.8755 5.57179C11.8755 5.40667 11.8102 5.24826 11.6938 5.13116Z" fill="white"/>
</svg>
