<svg width="24" height="24" viewBox="0 0 24 24" fill="none" xmlns="http://www.w3.org/2000/svg">
<path d="M23.5 11.5002H1.089C1.164 11.2912 1.287 11.0992 1.453 10.9352L5.401 6.89224C5.594 6.69524 5.59 6.37824 5.392 6.18524C5.195 5.99324 4.879 5.99624 4.685 6.19424L0.744 10.2302C0.27 10.6972 0.006 11.3352 0 12.0002C0.002 12.6582 0.258 13.2962 0.716 13.7612L4.639 17.8472C4.737 17.9492 4.868 18.0002 5 18.0002C5.125 18.0002 5.25 17.9542 5.346 17.8602C5.545 17.6702 5.552 17.3522 5.361 17.1532L1.433 13.0622C1.273 12.9002 1.154 12.7082 1.082 12.5002H23.5C23.776 12.5002 24 12.2762 24 12.0002C24 11.7242 23.776 11.5002 23.5 11.5002Z" fill="black"/>
</svg>
