<svg width="30" height="30" viewBox="0 0 30 30" fill="none" xmlns="http://www.w3.org/2000/svg">
<path d="M23.75 15.0002C23.7513 15.8302 23.4312 16.6177 22.8475 17.2077L17.95 22.3089C17.8275 22.4364 17.6637 22.5002 17.5 22.5002C17.3438 22.5002 17.1887 22.4427 17.0662 22.3252C16.8175 22.0877 16.81 21.6902 17.0487 21.4414L21.9525 16.3339C22.1563 16.1277 22.305 15.8864 22.3962 15.6252H6.875C6.53 15.6252 6.25 15.3452 6.25 15.0002C6.25 14.6552 6.53 14.3752 6.875 14.3752H22.3887C22.295 14.1152 22.1437 13.8777 21.9412 13.6764L16.9987 8.61518C16.7575 8.36893 16.7625 7.97268 17.0088 7.73143C17.2563 7.49143 17.6525 7.49518 17.8925 7.74268L22.8275 12.7964C23.4137 13.3739 23.7438 14.1664 23.75 15.0002Z" fill="#32A94E"/>
</svg>
