<svg width="24" height="24" viewBox="0 0 24 24" fill="none" xmlns="http://www.w3.org/2000/svg">
<path d="M23.263 10.2368C23.73 10.6978 23.994 11.3348 24 11.9998C23.998 12.6578 23.742 13.2958 23.279 13.7658L19.361 17.8468C19.263 17.9488 19.132 17.9998 19 17.9998C18.875 17.9998 18.75 17.9538 18.654 17.8598C18.455 17.6698 18.448 17.3518 18.639 17.1528L22.562 13.0668C22.725 12.9018 22.845 12.7088 22.917 12.4998H0.5C0.224 12.4998 0 12.2758 0 11.9998C0 11.7238 0.224 11.4998 0.5 11.4998H22.911C22.836 11.2918 22.715 11.1018 22.553 10.9418L18.598 6.89175C18.405 6.69475 18.409 6.37775 18.607 6.18475C18.805 5.99275 19.121 5.99575 19.314 6.19375L23.262 10.2368H23.263Z" fill="black"/>
</svg>
