<svg width="40" height="40" viewBox="0 0 40 40" fill="none" xmlns="http://www.w3.org/2000/svg">
<path d="M17.6658 21.1834C17.5096 21.0284 17.3856 20.8441 17.301 20.641C17.2163 20.4379 17.1728 20.22 17.1728 20C17.1728 19.78 17.2163 19.5622 17.301 19.3591C17.3856 19.156 17.5096 18.9716 17.6658 18.8167L25.3158 11.1834C25.472 11.0284 25.596 10.8441 25.6806 10.641C25.7652 10.4379 25.8088 10.22 25.8088 10C25.8088 9.78 25.7652 9.56216 25.6806 9.35906C25.596 9.15596 25.472 8.97162 25.3158 8.81669C25.0035 8.50627 24.5811 8.33203 24.1408 8.33203C23.7005 8.33203 23.2781 8.50627 22.9658 8.81669L15.3158 16.4667C14.3794 17.4042 13.8535 18.675 13.8535 20C13.8535 21.325 14.3794 22.5959 15.3158 23.5334L22.9658 31.1834C23.2762 31.4913 23.6952 31.6648 24.1324 31.6667C24.3518 31.668 24.5692 31.6259 24.7723 31.543C24.9754 31.46 25.16 31.3378 25.3158 31.1834C25.472 31.0284 25.596 30.8441 25.6806 30.641C25.7652 30.4379 25.8088 30.22 25.8088 30C25.8088 29.78 25.7652 29.5622 25.6806 29.3591C25.596 29.156 25.472 28.9716 25.3158 28.8167L17.6658 21.1834Z" fill="black"/>
</svg>
