<svg width="40" height="40" viewBox="0 0 40 40" fill="none" xmlns="http://www.w3.org/2000/svg">
<path d="M25.6668 16.4667L18.0168 8.81669C17.7046 8.50627 17.2821 8.33203 16.8418 8.33203C16.4015 8.33203 15.9791 8.50627 15.6668 8.81669C15.5106 8.97162 15.3866 9.15596 15.302 9.35906C15.2174 9.56216 15.1738 9.78 15.1738 10C15.1738 10.22 15.2174 10.4379 15.302 10.641C15.3866 10.8441 15.5106 11.0284 15.6668 11.1834L23.3335 18.8167C23.4897 18.9716 23.6137 19.156 23.6983 19.3591C23.7829 19.5622 23.8265 19.78 23.8265 20C23.8265 20.22 23.7829 20.4379 23.6983 20.641C23.6137 20.8441 23.4897 21.0284 23.3335 21.1834L15.6668 28.8167C15.353 29.1283 15.1758 29.5519 15.1742 29.9941C15.1727 30.4364 15.3469 30.8612 15.6585 31.175C15.9701 31.4889 16.3937 31.6661 16.8359 31.6676C17.2782 31.6692 17.703 31.495 18.0168 31.1834L25.6668 23.5334C26.6032 22.5959 27.1291 21.325 27.1291 20C27.1291 18.675 26.6032 17.4042 25.6668 16.4667Z" fill="black"/>
</svg>
