<svg width="25" height="25" viewBox="0 0 25 25" fill="none" xmlns="http://www.w3.org/2000/svg">
<g clip-path="url(#clip0_469_190)">
<path d="M23.2494 4.61563L8.8546 19.0094C8.75782 19.1065 8.6428 19.1836 8.51615 19.2362C8.38951 19.2889 8.25372 19.3159 8.11658 19.3159C7.97944 19.3159 7.84365 19.2889 7.717 19.2362C7.59035 19.1836 7.47534 19.1065 7.37856 19.0094L1.81189 13.4375C1.71511 13.3403 1.60009 13.2632 1.47345 13.2106C1.3468 13.158 1.21101 13.131 1.07387 13.131C0.93673 13.131 0.80094 13.158 0.674292 13.2106C0.547643 13.2632 0.432629 13.3403 0.335848 13.4375C0.238685 13.5343 0.161588 13.6493 0.108983 13.776C0.0563767 13.9026 0.0292969 14.0384 0.0292969 14.1755C0.0292969 14.3127 0.0563767 14.4485 0.108983 14.5751C0.161588 14.7018 0.238685 14.8168 0.335848 14.9136L5.9046 20.4813C6.49204 21.0676 7.28814 21.3969 8.11814 21.3969C8.94814 21.3969 9.74424 21.0676 10.3317 20.4813L24.7254 6.09063C24.8224 5.99387 24.8994 5.87892 24.9519 5.75237C25.0044 5.62582 25.0315 5.49015 25.0315 5.35313C25.0315 5.21612 25.0044 5.08045 24.9519 4.9539C24.8994 4.82734 24.8224 4.7124 24.7254 4.61563C24.6287 4.51847 24.5136 4.44137 24.387 4.38877C24.2603 4.33616 24.1245 4.30908 23.9874 4.30908C23.8503 4.30908 23.7145 4.33616 23.5878 4.38877C23.4612 4.44137 23.3462 4.51847 23.2494 4.61563Z" fill="#32A94E"/>
</g>
<defs>
<clipPath id="clip0_469_190">
<rect width="25" height="25" fill="white"/>
</clipPath>
</defs>
</svg>
