<svg width="25" height="25" viewBox="0 0 25 25" fill="none" xmlns="http://www.w3.org/2000/svg">
<g clip-path="url(#clip0_135_43)">
<path d="M19.5375 8.38333C19.7385 8.58854 19.7365 8.91875 19.5312 9.12083L13.9844 14.5833C13.2698 15.2823 12.351 15.6323 11.4323 15.6323C10.5229 15.6323 9.6125 15.2896 8.90104 14.6031L6.50937 12.2448C6.30521 12.0427 6.30312 11.7135 6.50417 11.5083C6.70833 11.3031 7.0375 11.301 7.24167 11.5031L9.62917 13.8573C10.6438 14.8375 12.2385 14.8333 13.2542 13.8385L18.8 8.37708C19.0031 8.17604 19.3344 8.17812 19.5365 8.38229L19.5375 8.38333ZM25 12.5C25 19.3927 19.3927 25 12.5 25C5.60729 25 0 19.3927 0 12.5C0 5.60729 5.60729 0 12.5 0C19.3927 0 25 5.60729 25 12.5ZM23.9583 12.5C23.9583 6.18229 18.8177 1.04167 12.5 1.04167C6.18229 1.04167 1.04167 6.18229 1.04167 12.5C1.04167 18.8177 6.18229 23.9583 12.5 23.9583C18.8177 23.9583 23.9583 18.8177 23.9583 12.5Z" fill="#182D27"/>
</g>
<defs>
<clipPath id="clip0_135_43">
<rect width="25" height="25" fill="white"/>
</clipPath>
</defs>
</svg>
