<svg width="25" height="25" viewBox="0 0 25 25" fill="none" xmlns="http://www.w3.org/2000/svg">
<g clip-path="url(#clip0_135_21)">
<path d="M12.5 25C5.60729 25 0 19.3927 0 12.5C0 5.60729 5.60729 0 12.5 0C19.3927 0 25 5.60729 25 12.5C25 19.3927 19.3927 25 12.5 25ZM12.5 1.04167C6.18229 1.04167 1.04167 6.18229 1.04167 12.5C1.04167 18.8177 6.18229 23.9583 12.5 23.9583C18.8177 23.9583 23.9583 18.8177 23.9583 12.5C23.9583 6.18229 18.8177 1.04167 12.5 1.04167ZM17.7083 13.0208C17.7083 12.7333 17.475 12.5 17.1875 12.5H12.5V5.72917C12.5 5.44167 12.2667 5.20833 11.9792 5.20833C11.6917 5.20833 11.4583 5.44167 11.4583 5.72917V13.0208C11.4583 13.3083 11.6917 13.5417 11.9792 13.5417H17.1875C17.475 13.5417 17.7083 13.3083 17.7083 13.0208Z" fill="black"/>
</g>
<defs>
<clipPath id="clip0_135_21">
<rect width="25" height="25" fill="white"/>
</clipPath>
</defs>
</svg>
