<svg width="21" height="21" viewBox="0 0 21 21" fill="none" xmlns="http://www.w3.org/2000/svg">
<g clip-path="url(#clip0_887_9)">
<path d="M11.7373 10.4943L20.7438 1.48778C21.0795 1.14021 21.0699 0.586238 20.7224 0.250519C20.3833 -0.0769961 19.8456 -0.0769961 19.5066 0.250519L10.5 9.25705L1.49345 0.250519C1.14583 -0.0851994 0.591907 -0.0755605 0.256188 0.272012C-0.0713274 0.611094 -0.0713274 1.1487 0.256188 1.48778L9.26272 10.4943L0.256188 19.5008C-0.085396 19.8426 -0.085396 20.3964 0.256188 20.7381C0.597895 21.0797 1.15178 21.0797 1.49345 20.7381L10.5 11.7316L19.5065 20.7381C19.8482 21.0797 20.4021 21.0797 20.7438 20.7381C21.0854 20.3964 21.0854 19.8425 20.7438 19.5008L11.7373 10.4943Z" fill="black"/>
</g>
<defs>
<clipPath id="clip0_887_9">
<rect width="21" height="21" fill="white"/>
</clipPath>
</defs>
</svg>
