<svg width="40" height="40" viewBox="0 0 40 40" fill="none" xmlns="http://www.w3.org/2000/svg">
<path d="M29.9997 9.9997C29.6872 9.68724 29.2633 9.51172 28.8214 9.51172C28.3794 9.51172 27.9556 9.68724 27.643 9.9997L19.9997 17.643L12.3564 9.9997C12.0438 9.68724 11.62 9.51172 11.178 9.51172C10.7361 9.51172 10.3122 9.68724 9.9997 9.9997C9.68724 10.3122 9.51172 10.7361 9.51172 11.178C9.51172 11.62 9.68724 12.0438 9.9997 12.3564L17.643 19.9997L9.9997 27.643C9.68724 27.9556 9.51172 28.3794 9.51172 28.8214C9.51172 29.2633 9.68724 29.6872 9.9997 29.9997C10.3122 30.3122 10.7361 30.4877 11.178 30.4877C11.62 30.4877 12.0438 30.3122 12.3564 29.9997L19.9997 22.3564L27.643 29.9997C27.9556 30.3122 28.3794 30.4877 28.8214 30.4877C29.2633 30.4877 29.6872 30.3122 29.9997 29.9997C30.3122 29.6872 30.4877 29.2633 30.4877 28.8214C30.4877 28.3794 30.3122 27.9556 29.9997 27.643L22.3564 19.9997L29.9997 12.3564C30.3122 12.0438 30.4877 11.62 30.4877 11.178C30.4877 10.7361 30.3122 10.3122 29.9997 9.9997Z" fill="black"/>
</svg>
