<svg width="25" height="25" viewBox="0 0 25 25" fill="none" xmlns="http://www.w3.org/2000/svg">
<g clip-path="url(#clip0_503_684)">
<path d="M16.5148 11.3062L13.2378 14.5833L16.5148 17.8604C16.718 18.0635 16.718 18.3937 16.5148 18.5969C16.4128 18.699 16.2794 18.749 16.1461 18.749C16.0128 18.749 15.8794 18.6979 15.7773 18.5969L12.5003 15.3198L9.22318 18.5969C9.12109 18.699 8.98776 18.749 8.85443 18.749C8.72109 18.749 8.58776 18.6979 8.48568 18.5969C8.28255 18.3937 8.28255 18.0635 8.48568 17.8604L11.7628 14.5833L8.48568 11.3062C8.28255 11.1031 8.28255 10.7729 8.48568 10.5698C8.6888 10.3667 9.01901 10.3667 9.22213 10.5698L12.4992 13.8469L15.7763 10.5698C15.9794 10.3667 16.3096 10.3667 16.5128 10.5698C16.7159 10.7729 16.7159 11.1031 16.5128 11.3062H16.5148ZM23.9586 4.6875C23.9586 4.975 23.7253 5.20833 23.4378 5.20833H21.8753C21.8753 5.22396 21.8753 5.23958 21.8732 5.25625L20.4461 20.7427C20.2221 23.1698 18.2148 25 15.7784 25H9.24505C6.81068 25 4.80443 23.1729 4.57839 20.75L3.12839 5.25729C3.12734 5.24062 3.1263 5.225 3.1263 5.20833H1.5638C1.2763 5.20833 1.04297 4.975 1.04297 4.6875C1.04297 4.4 1.2763 4.16667 1.5638 4.16667H6.8013C7.06172 1.82604 9.0513 0 11.4596 0H13.543C15.9513 0 17.9419 1.82604 18.2013 4.16667H23.4388C23.7263 4.16667 23.9586 4.4 23.9586 4.6875ZM7.85026 4.16667H17.1503C16.8971 2.40208 15.3753 1.04167 13.5419 1.04167H11.4586C9.62526 1.04167 8.10338 2.40208 7.85026 4.16667ZM20.8315 5.20833H4.16901L5.6138 20.6521C5.7888 22.5375 7.35026 23.9583 9.24297 23.9583H15.7763C17.6721 23.9583 19.2326 22.5354 19.4065 20.6469L20.8294 5.20833H20.8315Z" fill="#FB000F"/>
</g>
<defs>
<clipPath id="clip0_503_684">
<rect width="25" height="25" fill="white"/>
</clipPath>
</defs>
</svg>
