<svg width="25" height="25" viewBox="0 0 25 25" fill="none" xmlns="http://www.w3.org/2000/svg">
<g clip-path="url(#clip0_135_27)">
<path d="M25 9.89583V20.3125C25 22.8958 22.8958 25 20.3125 25H4.6875C2.10417 25 0 22.8958 0 20.3125V7.8125C0 5.22917 2.10417 3.125 4.6875 3.125H14.0625C14.3542 3.125 14.5833 3.35417 14.5833 3.64583C14.5833 3.9375 14.3542 4.16667 14.0625 4.16667H4.6875C3.01042 4.16667 1.59375 5.30208 1.16667 6.84375L9.91667 15.5938C11.3333 17.0208 13.6458 17.0104 15.0729 15.5938L19.9375 10.5729C20.1354 10.3646 20.4688 10.3646 20.6771 10.5625C20.8854 10.7604 20.8854 11.0938 20.6875 11.3021L15.8229 16.3333C14.9062 17.25 13.6979 17.7083 12.5 17.7083C11.3021 17.7083 10.1042 17.25 9.1875 16.3333L1.04167 8.1875V20.3125C1.04167 22.3229 2.67708 23.9583 4.6875 23.9583H20.3125C22.3229 23.9583 23.9583 22.3229 23.9583 20.3125V9.89583C23.9583 9.60417 24.1875 9.375 24.4792 9.375C24.7708 9.375 25 9.60417 25 9.89583ZM16.6667 4.16667C16.6667 1.86458 18.5312 0 20.8333 0C23.1354 0 25 1.86458 25 4.16667C25 6.46875 23.1354 8.33333 20.8333 8.33333C18.5312 8.33333 16.6667 6.46875 16.6667 4.16667ZM17.7083 4.16667C17.7083 5.88542 19.1146 7.29167 20.8333 7.29167C22.5521 7.29167 23.9583 5.88542 23.9583 4.16667C23.9583 2.44792 22.5521 1.04167 20.8333 1.04167C19.1146 1.04167 17.7083 2.44792 17.7083 4.16667Z" fill="black"/>
</g>
<defs>
<clipPath id="clip0_135_27">
<rect width="25" height="25" fill="white"/>
</clipPath>
</defs>
</svg>
