<svg width="30" height="22" viewBox="0 0 30 22" fill="none" xmlns="http://www.w3.org/2000/svg">
<path d="M0 1.375C0 1.025 0.275 0.75 0.625 0.75H23.125C23.475 0.75 23.75 1.025 23.75 1.375C23.75 1.725 23.475 2 23.125 2H0.625C0.275 2 0 1.725 0 1.375ZM23.125 20.75H0.625C0.275 20.75 0 21.025 0 21.375C0 21.725 0.275 22 0.625 22H23.125C23.475 22 23.75 21.725 23.75 21.375C23.75 21.025 23.475 20.75 23.125 20.75ZM29.375 10.75H6.875C6.525 10.75 6.25 11.025 6.25 11.375C6.25 11.725 6.525 12 6.875 12H29.375C29.725 12 30 11.725 30 11.375C30 11.025 29.725 10.75 29.375 10.75Z" fill="white"/>
</svg>
