<svg width="25" height="25" viewBox="0 0 25 25" fill="none" xmlns="http://www.w3.org/2000/svg">
<g clip-path="url(#clip0_135_25)">
<path d="M1.80214 1.84342L2.96881 0.822591C4.03131 -0.239909 5.8334 -0.291992 6.97923 0.874674L8.92715 3.42676C10.0209 4.52051 10.0209 6.30176 8.92715 7.38509L7.37506 8.97884C9.06256 12.9372 12.1771 16.0622 16.0105 17.6247L17.6042 16.0726C18.1355 15.5413 18.8334 15.2497 19.5834 15.2497C20.3334 15.2497 21.0313 15.5413 21.5105 16.0309L24.1563 18.0726C25.2501 19.1663 25.2501 20.9476 24.1771 22.0101L23.1146 23.2288C21.9688 24.3747 20.4271 25.0101 18.7501 25.0101C10.6771 25.0101 -0.0207729 14.3018 -0.0207729 6.23926C-0.0207729 4.57259 0.614643 3.02051 1.78131 1.85384L1.80214 1.84342ZM18.7709 23.958C20.1667 23.958 21.448 23.4372 22.3751 22.5101L23.4376 21.2809C24.1251 20.5934 24.1251 19.4788 23.4896 18.833L20.8438 16.7913C20.5105 16.458 20.073 16.2705 19.5938 16.2705C19.1146 16.2705 18.6771 16.458 18.3438 16.7913L16.5001 18.5934C16.3542 18.7393 16.1459 18.7809 15.948 18.708C11.6042 17.0518 8.07298 13.5205 6.2709 9.04134C6.19798 8.85384 6.23964 8.63509 6.38548 8.47884L8.18756 6.63509C8.87506 5.94759 8.87506 4.83301 8.14589 4.09342L6.19798 1.54134C5.51048 0.853841 4.3959 0.853841 3.67715 1.56217L2.51048 2.58301C1.56256 3.53092 1.04173 4.81217 1.04173 6.20801C1.04173 13.6663 11.3126 23.9372 18.7709 23.9372V23.958Z" fill="black"/>
</g>
<defs>
<clipPath id="clip0_135_25">
<rect width="25" height="25" fill="white" transform="matrix(-1 0 0 1 25 0)"/>
</clipPath>
</defs>
</svg>
