<svg width="30" height="30" viewBox="0 0 30 30" fill="none" xmlns="http://www.w3.org/2000/svg">
<g clip-path="url(#clip0_135_65)">
<path d="M17.7984 18.6392C15.0757 21.0167 11.0044 21.7658 7.57945 20.3654C3.44976 18.6769 0.819137 13.9276 1.60922 9.50865C2.39976 5.0867 6.51117 1.5099 11.1087 1.40795C11.1933 1.40654 11.2779 1.40607 11.3627 1.40631C15.8812 1.4492 20.141 4.93599 20.978 9.44818C21.5391 12.4726 20.5716 15.74 18.4727 17.9872L26.6259 25.9137C26.8008 26.0984 26.7705 26.1598 26.7677 26.2627C26.7579 26.6201 26.2732 26.855 25.9723 26.5859L17.7984 18.6392ZM11.2416 2.34381C7.20843 2.38201 3.42398 5.43123 2.58515 9.40107C1.96781 12.3235 2.94023 15.5337 5.07867 17.6213C7.53445 20.0185 11.4216 20.8233 14.6639 19.4975C18.4146 17.9642 20.8003 13.6301 20.0562 9.61904C19.3186 5.6424 15.6359 2.43779 11.4717 2.34521C11.395 2.34404 11.3183 2.34357 11.2416 2.34381Z" fill="white"/>
</g>
<defs>
<clipPath id="clip0_135_65">
<rect width="30" height="30" fill="white"/>
</clipPath>
</defs>
</svg>
