<svg width="30" height="30" viewBox="0 0 30 30" fill="none" xmlns="http://www.w3.org/2000/svg">
<path d="M24.8439 26.1094L22.9689 9.23438C22.8752 8.53125 22.2189 7.96875 21.4689 7.96875H18.7502V6.14063C18.7502 4.03125 17.0627 2.34375 15.0002 2.34375C12.9377 2.34375 11.2502 4.03125 11.2502 6.14063V7.96875H8.57832C7.78144 7.96875 7.12519 8.53125 7.07832 9.23438L5.20332 26.1094C5.15644 26.4844 5.29707 26.8594 5.53144 27.1406C5.81269 27.4688 6.23457 27.6562 6.70332 27.6562H23.3439C23.8127 27.6562 24.2346 27.4688 24.5158 27.1406C24.7502 26.8594 24.8908 26.4844 24.8439 26.1094ZM12.1877 6.14063C12.1877 4.54688 13.4533 3.28125 15.0002 3.28125C16.5471 3.28125 17.8127 4.54688 17.8127 6.14063V7.96875H12.1877V6.14063ZM23.8127 26.5312C23.7189 26.6719 23.5314 26.7188 23.3439 26.7188H6.65644C6.46894 26.7188 6.28144 26.625 6.18769 26.5312C6.14082 26.4844 6.04707 26.3438 6.09394 26.2031L7.96894 9.32812C8.01582 9.09375 8.25019 8.90625 8.53144 8.90625H11.2502V12.1875C11.2502 12.4688 11.4377 12.6562 11.7189 12.6562C12.0002 12.6562 12.1877 12.4688 12.1877 12.1875V8.90625H17.8127V12.1875C17.8127 12.4688 18.0002 12.6562 18.2814 12.6562C18.5627 12.6562 18.7502 12.4688 18.7502 12.1875V8.90625H21.4221C21.7033 8.90625 21.9846 9.09375 21.9846 9.32812L23.8596 26.2031C23.9064 26.3438 23.8596 26.4375 23.8127 26.5312Z" fill="white"/>
</svg>
