<svg width="25" height="25" viewBox="0 0 25 25" fill="none" xmlns="http://www.w3.org/2000/svg">
<g clip-path="url(#clip0_135_70)">
<path fill-rule="evenodd" clip-rule="evenodd" d="M21.3158 3.63333C18.9762 1.29167 15.8658 0.00104167 12.5523 0C5.72415 0 0.166862 5.55625 0.163737 12.3875C0.162695 14.5708 0.733529 16.7021 1.8179 18.5812L0.0595703 25L6.62624 23.2771C8.43561 24.2646 10.4731 24.7844 12.546 24.7854H12.5512C19.3783 24.7854 24.9367 19.2281 24.9398 12.3969C24.9419 9.0875 23.6544 5.97396 21.3158 3.63333ZM12.5523 22.6927H12.5481C10.7002 22.6927 8.88874 22.1958 7.30749 21.2573L6.93144 21.0344L3.03457 22.0562L4.0752 18.2562L3.8304 17.8667C2.79915 16.2271 2.2554 14.3323 2.25645 12.3875C2.25853 6.71042 6.87832 2.09167 12.5575 2.09167C15.3075 2.09167 17.8929 3.16458 19.8367 5.11042C21.7804 7.05729 22.8502 9.64375 22.8492 12.3948C22.846 18.074 18.2273 22.6927 12.5523 22.6927ZM18.2002 14.9812C17.8908 14.826 16.3689 14.0771 16.0846 13.974C15.8012 13.8708 15.595 13.8187 15.3877 14.1281C15.1804 14.4375 14.5887 15.1354 14.4075 15.3427C14.2273 15.549 14.046 15.575 13.7367 15.4198C13.4273 15.2646 12.4294 14.9385 11.2471 13.8833C10.3273 13.0625 9.7054 12.049 9.5252 11.7385C9.34499 11.4281 9.50644 11.2615 9.66061 11.1073C9.80019 10.9688 9.96999 10.7458 10.1252 10.5646C10.2814 10.3854 10.3325 10.2563 10.4367 10.049C10.5398 9.84271 10.4887 9.66146 10.4106 9.50625C10.3325 9.35208 9.71374 7.82812 9.45644 7.20833C9.2054 6.60417 8.9502 6.68646 8.75957 6.67708C8.57936 6.66771 8.37311 6.66667 8.16582 6.66667C7.95957 6.66667 7.62415 6.74375 7.34082 7.05417C7.05749 7.36458 6.25749 8.11354 6.25749 9.63646C6.25749 11.1604 7.36686 12.6323 7.52103 12.8385C7.67519 13.0448 9.70332 16.1719 12.8085 17.5125C13.5471 17.8312 14.1242 18.0219 14.5731 18.1646C15.3148 18.4 15.9898 18.3667 16.5231 18.2875C17.1179 18.199 18.3544 17.5385 18.6127 16.8156C18.871 16.0927 18.871 15.4719 18.7929 15.3437C18.7158 15.2135 18.5096 15.1365 18.2002 14.9812Z" fill="#182D27"/>
</g>
<defs>
<clipPath id="clip0_135_70">
<rect width="25" height="25" fill="white"/>
</clipPath>
</defs>
</svg>
